<svg xmlns="http://www.w3.org/2000/svg">
  <!-- Minimalist / Retro-style symbols -->
  
  <symbol id="spark-icon" viewBox="0 0 24 24">
    <path fill="currentColor" d="M11 2h2v4h-2V2zM5.636 4.222l1.414 1.414-2.828 2.828-1.414-1.414 2.828-2.828zM18.364 4.222l2.828 2.828-1.414 1.414-2.828-2.828 1.414-1.414zM2 11h4v2H2v-2zM18 11h4v2h-4v-2zM5.636 19.778l-2.828-2.828 1.414-1.414 2.828 2.828-1.414 1.414zM18.364 19.778l-1.414-1.414 2.828-2.828 1.414 1.414-2.828 2.828zM11 18h2v4h-2v-4zM8 8h8v8H8V8z"/>
  </symbol>

  <symbol id="boom-icon" viewBox="0 0 24 24">
    <path fill="currentColor" d="M4 4h16v2H4V4zm0 4h16v12H4V8zm2 2v8h12v-8H6zm3 2h6v2H9v-2z"/>
  </symbol>

  <symbol id="social-icon" viewBox="0 0 24 24">
    <path fill="currentColor" d="M12 2a5 5 0 1 0 5 5 5 5 0 0 0-5-5zm0 8a3 3 0 1 1 3-3 3 3 0 0 1-3 3zm0 2c-3.3 0-10 1.6-10 4.8V22h20v-5.2c0-3.2-6.7-4.8-10-4.8zm-8 8v-3.2c0-1.2 2.6-2.8 8-2.8s8 1.6 8 2.8V20z"/>
  </symbol>

  <symbol id="mobile-icon" viewBox="0 0 24 24">
    <path fill="currentColor" d="M17 1H7c-1.1 0-2 .9-2 2v18c0 1.1.9 2 2 2h10c1.1 0 2-.9 2-2V3c0-1.1-.9-2-2-2zM7 3h10v15H7V3zm5 18c-.55 0-1-.45-1-1s.45-1 1-1 1 .45 1 1-.45 1-1 1z"/>
  </symbol>

  <symbol id="future-icon" viewBox="0 0 24 24">
    <path fill="currentColor" d="M12 3l9 5v8l-9 5l-9-5V8l9-5zm0 2.4L5 9.4v5.2L12 18.6l7-4V9.4l-7-4zM12 7l4 2.2v4.6l-4 2.2l-4-2.2V9.2L12 7z"/>
  </symbol>

  <!-- Branded symbols — Flattened/Hard-edged for retro feel -->
  <symbol id="github-icon" viewBox="0 0 24 24">
    <path fill="currentColor" d="M12 .5a12 12 0 0 0-3.8 23.4c.6.1.8-.3.8-.6v-2.1c-3.3.7-4-1.6-4-1.6-.5-1.4-1.3-1.8-1.3-1.8-1.1-.7.1-.7.1-.7 1.2.1 1.8 1.3 1.8 1.3 1.1 1.8 2.8 1.3 3.5 1 .1-.8.4-1.3.8-1.6-2.7-.3-5.5-1.3-5.5-5.9 0-1.3.5-2.4 1.3-3.2-.1-.3-.5-1.5.1-3.2 0 0 1-.3 3.3 1.2a11.4 11.4 0 0 1 6 0c2.3-1.5 3.3-1.2 3.3-1.2.6 1.7.2 2.9.1 3.2.8.8 1.3 1.9 1.3 3.2 0 4.6-2.8 5.6-5.5 5.9.4.4.8 1.1.8 2.2v3.3c0 .3.2.7.8.6A12 12 0 0 0 12 .5"/>
  </symbol>

  <symbol id="discord-icon" viewBox="0 0 24 24">
    <path fill="currentColor" d="M19.3 4.5c-1.5-.7-3.1-1.2-4.8-1.4l-.2.5c1.4.4 2.8 1 4 1.8-1.6-.8-3.4-1.4-5.3-1.6-1.3-.2-2.6-.2-3.9 0-1.9.2-3.7.8-5.3 1.6 1.2-.8 2.6-1.4 4-1.8l-.2-.5c-1.7.2-3.3.7-4.8 1.4C1.3 8.1.3 12.1.8 16c1.6 2.1 3.9 3.4 6.3 3.5l1.2-1.5c-1.4-.4-2.7-1-3.8-1.9l.4.4c2.5 1.5 5.5 1.5 8 0l.4-.4c-1.1.9-2.4 1.5-3.8 1.9l1.2 1.5c2.4-.1 4.7-1.4 6.3-3.5.5-3.9-.5-7.9-2.5-11.5zM8.5 13c-.8 0-1.5-.7-1.5-1.5s.7-1.5 1.5-1.5 1.5.7 1.5 1.5-.7 1.5-1.5 1.5zm7 0c-.8 0-1.5-.7-1.5-1.5s.7-1.5 1.5-1.5 1.5.7 1.5 1.5-.7 1.5-1.5 1.5z"/>
  </symbol>

</svg>
